<?xml version="1.0" encoding="UTF-8" standalone="no"?>
<!DOCTYPE svg PUBLIC "-//W3C//DTD SVG 20010904//EN"
              "http://www.w3.org/TR/2001/REC-SVG-20010904/DTD/svg10.dtd">

<svg xmlns="http://www.w3.org/2000/svg"
     width="8.33229in" height="4.16615in"
     viewBox="0 0 600 300">
  <path id="选区"
        fill="none" stroke="black" stroke-width="1"
        d="M 275.61,67.00
           C 287.55,82.18 279.04,100.37 262.00,106.45
             255.92,108.63 251.37,109.07 245.00,109.00
             216.20,108.67 200.05,81.53 211.65,65.00
             213.52,62.32 216.34,59.69 219.00,57.79
             224.71,53.72 230.29,52.68 237.00,51.44
             250.96,49.66 266.88,55.89 275.61,67.00 Z
           M 231.11,78.00
           C 234.77,83.62 246.00,94.09 253.00,94.57
             261.65,95.15 260.74,87.12 257.39,82.00
             252.56,74.61 244.01,66.94 235.00,65.79
             226.66,66.73 227.27,72.12 231.11,78.00 Z
           M 188.00,128.34
           C 173.38,131.63 157.44,129.22 146.09,118.70
             133.48,107.01 133.70,88.99 148.00,78.79
             155.21,73.64 162.61,73.12 171.00,71.77
             177.25,70.96 180.51,66.44 188.00,71.77
             195.82,77.10 197.71,86.40 189.98,87.77
             180.13,89.51 171.40,77.77 162.13,86.28
             160.48,87.79 159.15,89.72 158.90,92.00
             158.04,99.73 170.37,111.35 177.00,114.02
             179.68,115.10 184.16,116.10 186.80,114.65
             189.69,113.11 189.78,109.98 186.80,108.60
             185.59,108.06 171.54,108.34 178.45,100.34
             179.17,99.49 180.11,98.81 181.04,98.21
             186.53,94.65 198.45,91.66 205.00,92.04
             211.57,92.43 214.89,98.23 208.00,101.00
             210.74,116.33 202.77,125.01 188.00,128.34 Z
           M 134.61,109.00
           C 146.55,124.18 138.04,142.37 121.00,148.45
             114.92,150.63 110.37,151.07 104.00,151.00
             75.20,150.67 59.05,123.53 70.65,107.00
             72.52,104.32 75.34,101.69 78.00,99.79
             83.71,95.72 89.29,94.68 96.00,93.44
             109.96,91.66 125.88,97.89 134.61,109.00 Z
           M 90.11,120.00
           C 93.77,125.62 105.00,136.09 112.00,136.57
             120.65,137.15 119.74,129.12 116.39,124.00
             111.56,116.61 103.01,108.94 94.00,107.79
             85.66,108.73 86.27,114.12 90.11,120.00 Z
           M 548.33,155.73
           C 551.28,158.59 554.62,158.80 555.92,161.27
             557.82,164.88 553.73,167.33 551.00,168.53
             545.62,170.91 535.86,173.29 530.00,172.96
             527.63,172.82 524.56,172.45 523.73,169.77
             522.92,167.20 525.17,164.97 524.31,161.00
             523.69,158.11 520.00,151.78 518.42,149.00
             515.72,144.21 511.23,134.74 506.91,131.73
             505.13,130.50 503.09,130.05 502.15,129.51
             499.58,128.04 498.73,125.81 500.62,123.27
             503.33,119.62 512.65,118.46 517.00,117.26
             526.14,114.72 533.06,110.43 543.00,110.04
             552.19,109.68 565.84,114.48 564.57,126.00
             564.24,128.98 562.53,131.51 561.00,134.00
             565.38,134.79 570.13,134.95 573.99,137.34
             578.61,140.21 580.48,144.05 584.01,146.41
             587.02,148.41 592.97,148.62 591.34,153.96
             589.58,159.76 577.27,162.28 572.00,161.81
             556.66,160.47 556.72,145.47 542.00,145.00
             543.55,148.57 545.51,152.99 548.33,155.73 Z
           M 75.58,143.23
           C 79.37,147.35 81.09,158.26 74.87,160.97
             74.87,160.97 63.00,163.73 63.00,163.73
             63.00,163.73 40.00,170.57 40.00,170.57
             36.92,171.45 30.18,173.82 27.62,171.25
             24.42,168.03 29.60,165.18 28.45,160.83
             27.57,157.50 19.64,144.73 17.40,141.00
             15.79,138.32 13.16,133.40 10.79,131.58
             7.44,129.02 0.35,129.62 1.05,124.98
             1.46,122.26 4.77,120.26 7.00,119.13
             11.80,116.71 21.60,114.22 27.00,113.44
             29.47,113.09 33.34,112.86 35.24,114.82
             38.45,118.12 33.38,120.56 34.61,125.09
             35.12,126.96 38.13,131.97 39.23,134.00
             41.65,138.45 47.62,149.82 51.10,152.69
             55.77,156.52 62.36,153.89 64.98,148.96
             66.27,146.53 66.00,142.73 66.00,140.00
             69.90,140.10 72.71,140.10 75.58,143.23 Z
           M 534.96,122.87
           C 533.03,122.26 531.85,122.65 530.00,122.87
             530.00,122.87 536.00,137.00 536.00,137.00
             548.51,133.21 538.88,123.71 534.96,122.87 Z
           M 506.61,146.00
           C 518.55,161.18 510.04,179.37 493.00,185.45
             486.92,187.63 482.37,188.07 476.00,188.00
             447.20,187.67 431.05,160.53 442.65,144.00
             444.52,141.32 447.34,138.69 450.00,136.79
             455.71,132.72 461.29,131.68 468.00,130.44
             481.96,128.66 497.88,134.89 506.61,146.00 Z
           M 462.11,157.00
           C 465.77,162.62 477.00,173.09 484.00,173.57
             492.65,174.15 491.74,166.12 488.39,161.00
             483.56,153.61 475.01,145.94 466.00,144.79
             457.66,145.73 458.27,151.12 462.11,157.00 Z
           M 372.01,160.43
           C 374.13,157.83 381.56,157.02 385.00,156.12
             385.00,156.12 407.00,149.56 407.00,149.56
             412.79,147.42 416.51,144.66 423.00,146.85
             430.39,149.35 440.54,160.82 431.89,164.40
             425.04,167.24 420.06,160.72 413.00,161.00
             415.34,166.24 425.63,185.42 429.18,188.85
             433.49,193.02 442.05,192.05 439.83,197.96
             438.82,200.66 435.46,202.31 433.00,203.38
             427.92,205.59 417.50,208.31 412.00,208.83
             409.34,209.08 405.47,209.11 403.33,207.26
             398.90,203.42 405.54,201.30 404.70,196.82
             404.70,196.82 395.22,177.00 395.22,177.00
             394.13,174.96 391.98,170.93 389.87,169.91
             385.82,167.95 386.31,174.68 383.49,177.84
             380.16,181.24 375.70,179.95 372.00,177.84
             371.98,183.09 372.28,187.46 366.00,188.57
             358.11,189.95 345.95,174.55 336.24,184.28
             332.05,188.48 334.46,193.01 337.53,197.00
             342.74,203.75 350.32,208.41 359.00,207.96
             369.29,207.42 372.30,199.86 376.17,198.66
             381.01,197.14 384.69,203.31 383.64,208.98
             382.81,213.54 378.49,216.01 375.00,218.50
             360.74,228.73 340.42,228.11 326.00,218.50
             318.11,213.21 311.36,203.97 312.19,194.00
             313.54,177.65 327.80,169.08 343.00,168.90
             343.00,168.90 350.00,168.90 350.00,168.90
             353.65,168.29 356.17,166.57 360.00,167.66
             363.94,168.78 367.15,172.23 370.00,175.00
             370.00,170.89 369.35,163.68 372.01,160.43 Z
           M 370.00,175.00
           C 370.00,175.00 371.00,176.00 371.00,176.00
             371.00,176.00 371.00,175.00 371.00,175.00
             371.00,175.00 370.00,175.00 370.00,175.00 Z
           M 371.00,177.00
           C 371.00,177.00 372.00,178.00 372.00,178.00
             372.00,178.00 372.00,177.00 372.00,177.00
             372.00,177.00 371.00,177.00 371.00,177.00 Z
           M 310.61,204.00
           C 322.55,219.18 314.04,237.37 297.00,243.45
             290.92,245.63 286.37,246.07 280.00,246.00
             251.20,245.67 235.05,218.53 246.65,202.00
             248.52,199.32 251.34,196.69 254.00,194.79
             259.71,190.72 265.29,189.68 272.00,188.44
             285.96,186.66 301.88,192.89 310.61,204.00 Z
           M 266.11,215.00
           C 269.77,220.62 281.00,231.09 288.00,231.57
             296.65,232.15 295.74,224.12 292.39,219.00
             287.56,211.61 279.01,203.94 270.00,202.79
             261.66,203.73 262.27,209.12 266.11,215.00 Z
           M 246.00,240.00
           C 246.05,245.09 245.99,248.54 243.03,252.96
             236.31,263.01 219.08,265.18 208.00,268.42
             208.00,268.42 194.00,272.66 194.00,272.66
             191.12,273.05 186.50,272.47 185.90,268.89
             185.48,266.36 187.94,264.45 187.59,261.00
             187.36,258.84 184.81,254.12 183.75,252.00
             183.75,252.00 174.04,234.00 174.04,234.00
             168.64,225.88 161.33,228.71 162.74,223.09
             163.68,219.35 169.82,218.21 173.00,217.29
             173.00,217.29 204.00,208.44 204.00,208.44
             223.97,205.88 245.77,218.11 246.00,240.00 Z
           M 200.70,237.00
           C 200.70,237.00 206.77,248.00 206.77,248.00
             208.06,250.35 209.93,253.86 212.18,255.36
             216.47,258.22 222.36,254.48 223.57,249.98
             224.78,245.46 222.31,239.92 220.21,236.00
             214.21,224.82 205.99,217.26 193.00,222.00
             194.70,227.38 197.99,232.08 200.70,237.00 Z" />
</svg>
