<?xml version="1.0" encoding="UTF-8" standalone="no"?>
<!DOCTYPE svg PUBLIC "-//W3C//DTD SVG 20010904//EN"
              "http://www.w3.org/TR/2001/REC-SVG-20010904/DTD/svg10.dtd">

<svg xmlns="http://www.w3.org/2000/svg"
     width="5.55486in" height="4.16615in"
     viewBox="0 0 400 300">
  <path id="选区"
        fill="none" stroke="black" stroke-width="1"
        d="M 220.66,91.67
           C 218.55,86.41 228.47,83.12 232.00,82.16
             237.61,80.63 245.32,79.81 249.79,75.70
             252.61,73.11 254.69,67.68 257.53,64.00
             263.53,56.21 272.34,49.59 282.00,47.24
             284.74,46.57 288.19,45.94 291.00,46.11
             300.68,46.67 305.57,54.90 304.81,64.00
             304.02,73.56 297.99,82.60 291.00,88.82
             280.47,98.18 252.40,109.46 250.00,87.00
             239.73,91.27 241.56,93.95 234.91,100.98
             223.17,113.40 198.97,118.75 193.85,103.99
             192.95,101.39 193.02,98.70 193.00,96.00
             188.50,98.62 186.79,103.99 183.53,108.00
             176.60,116.53 165.23,124.14 154.00,124.91
             146.38,125.43 140.65,123.70 138.00,116.00
             138.00,116.00 125.70,130.26 125.70,130.26
             125.70,130.26 114.00,133.20 114.00,133.20
             114.00,133.20 86.00,138.00 86.00,138.00
             86.00,138.00 93.89,125.00 93.89,125.00
             93.89,125.00 101.00,97.00 101.00,97.00
             101.00,97.00 96.00,96.00 96.00,96.00
             96.32,94.03 96.31,92.93 97.60,91.21
             102.37,84.85 118.79,82.95 126.00,85.00
             126.00,85.00 119.13,95.04 119.13,95.04
             119.13,95.04 112.39,120.00 112.39,120.00
             112.39,120.00 113.00,125.00 113.00,125.00
             117.48,123.43 121.44,122.09 124.28,117.96
             124.28,117.96 128.00,110.39 128.00,110.39
             130.64,107.00 134.48,107.11 136.92,103.73
             136.92,103.73 141.88,93.00 141.88,93.00
             145.88,86.04 152.90,79.51 160.00,75.78
             168.31,71.43 182.73,67.34 189.00,77.04
             190.91,80.01 191.51,83.58 192.00,87.00
             197.37,83.78 199.68,77.66 204.09,73.01
             212.54,64.12 221.80,59.65 234.00,58.82
             237.25,58.83 243.23,56.74 245.44,58.82
             250.73,63.19 244.91,77.52 237.09,75.30
             233.87,74.39 232.06,70.12 228.00,69.64
             219.38,68.64 212.07,83.40 212.36,91.00
             212.65,98.89 221.69,104.11 225.00,93.00
             223.32,93.22 221.51,93.82 220.66,91.67 Z
           M 270.18,79.00
           C 270.64,82.59 272.30,87.74 277.01,86.34
             285.64,83.79 289.02,60.69 278.01,59.58
             270.28,62.30 269.28,71.82 270.18,79.00 Z
           M 157.18,104.00
           C 157.64,107.59 159.30,112.74 164.01,111.34
             172.64,108.79 176.02,85.69 165.01,84.58
             157.28,87.30 156.28,96.82 157.18,104.00 Z
           M 303.00,150.08
           C 310.14,150.11 312.21,153.84 316.00,153.02
             318.29,152.52 324.89,147.17 328.00,145.54
             332.71,143.08 337.00,143.25 342.00,142.11
             347.57,140.85 355.65,137.77 361.00,138.11
             371.13,138.74 371.25,146.75 367.10,153.96
             367.10,153.96 360.00,163.00 360.00,163.00
             367.70,165.40 365.84,170.61 364.95,177.00
             370.15,178.83 368.68,182.37 364.95,185.01
             361.74,187.21 353.89,189.51 350.11,188.43
             344.54,186.83 345.36,180.45 344.94,176.01
             344.80,174.48 344.40,171.16 342.08,171.62
             340.90,171.85 340.14,173.10 339.65,174.08
             335.92,181.44 342.51,185.75 337.57,190.01
             334.49,192.66 324.14,194.94 320.00,194.94
             317.86,194.95 314.64,194.73 314.63,191.85
             314.61,188.96 318.32,186.12 320.53,181.00
             320.53,181.00 327.00,158.00 327.00,158.00
             324.30,159.80 319.92,162.18 318.58,165.18
             317.58,167.43 317.76,173.60 313.65,181.00
             307.66,191.77 295.24,201.33 283.00,203.54
             276.97,204.62 269.67,204.13 265.65,198.89
             262.84,195.24 262.76,190.41 263.31,186.00
             263.21,184.51 264.07,180.98 263.31,179.81
             262.48,177.58 259.12,178.21 257.21,177.38
             254.75,176.31 254.06,174.24 253.00,172.00
             253.00,172.00 251.00,172.00 251.00,172.00
             248.09,179.34 246.75,185.42 244.87,193.00
             243.70,197.75 242.22,200.23 247.00,203.00
             246.17,213.20 235.45,214.24 227.00,215.56
             224.54,215.95 217.68,216.91 216.74,213.69
             215.66,209.95 221.15,207.94 223.47,203.90
             226.43,198.75 230.72,182.10 231.00,176.00
             228.73,178.38 224.33,183.72 221.96,185.26
             218.81,187.32 216.85,186.53 213.00,188.69
             210.35,190.18 207.47,193.11 204.13,192.58
             199.44,191.83 198.94,180.79 190.00,185.32
             180.13,190.32 177.34,207.47 188.00,209.65
             194.77,211.03 199.28,204.18 207.00,203.00
             206.89,207.18 206.79,209.40 204.20,212.96
             197.50,222.15 161.64,238.27 161.00,210.00
             155.85,212.72 153.67,218.74 149.83,223.00
             142.84,230.74 131.68,237.61 121.00,237.96
             114.21,238.18 107.88,236.10 105.65,229.00
             104.94,226.76 105.02,224.32 105.00,222.00
             105.00,222.00 101.00,222.00 101.00,222.00
             100.03,227.10 98.33,229.85 95.24,234.00
             85.55,247.01 74.62,248.53 60.00,251.26
             56.64,251.89 43.97,256.53 42.25,252.68
             40.81,249.45 45.74,246.58 47.92,242.96
             49.81,239.82 52.52,229.13 53.71,225.00
             54.33,222.84 56.11,217.01 56.02,215.04
             55.90,212.33 54.78,211.70 53.00,210.00
             56.05,201.27 64.16,201.98 72.00,200.12
             80.76,198.04 99.02,192.16 103.15,204.02
             104.13,206.82 103.99,210.06 104.00,213.00
             108.60,210.32 110.75,203.70 115.09,199.00
             117.73,196.14 120.75,193.26 124.00,191.10
             133.61,184.71 152.83,178.39 158.44,193.00
             159.43,195.60 159.77,198.26 160.00,201.00
             164.34,198.48 165.86,194.00 168.90,190.00
             172.41,185.39 176.19,182.09 181.00,178.89
             191.51,171.90 198.05,172.34 209.96,172.57
             213.94,172.65 214.69,174.87 216.92,174.40
             219.53,173.85 221.93,169.08 226.00,167.02
             228.04,165.99 232.48,165.67 235.00,165.20
             235.00,165.20 254.00,160.97 254.00,160.97
             256.93,160.11 260.86,158.36 263.78,160.04
             266.04,161.34 268.41,167.38 270.00,170.00
             275.17,159.06 290.87,150.02 303.00,150.08 Z
           M 342.00,162.00
           C 349.34,160.14 350.41,155.95 351.00,149.00
             343.45,149.63 343.49,155.42 342.00,162.00 Z
           M 283.18,183.00
           C 283.64,186.59 285.30,191.74 290.01,190.34
             298.64,187.79 302.02,164.69 291.01,163.58
             283.28,166.30 282.28,175.82 283.18,183.00 Z
           M 125.18,217.00
           C 125.64,220.59 127.30,225.74 132.01,224.34
             140.64,221.79 144.02,198.69 133.01,197.58
             125.28,200.30 124.28,209.82 125.18,217.00 Z
           M 84.20,220.00
           C 84.96,216.01 86.32,208.77 80.89,207.47
             74.12,205.85 73.32,213.44 72.12,218.00
             72.12,218.00 69.37,228.00 69.37,228.00
             67.91,233.80 67.13,235.89 67.00,242.00
             78.47,239.81 82.21,230.33 84.20,220.00 Z" />
</svg>
