<?xml version="1.0" encoding="UTF-8" standalone="no"?>
<!DOCTYPE svg PUBLIC "-//W3C//DTD SVG 20010904//EN"
              "http://www.w3.org/TR/2001/REC-SVG-20010904/DTD/svg10.dtd">

<svg xmlns="http://www.w3.org/2000/svg"
     width="5.55486in" height="4.16615in"
     viewBox="0 0 400 300">
  <path id="选区"
        fill="none" stroke="black" stroke-width="1"
        d="M 175.66,92.67
           C 173.55,87.41 183.47,84.12 187.00,83.16
             192.61,81.63 200.32,80.81 204.79,76.70
             207.61,74.11 209.69,68.68 212.53,65.00
             218.53,57.21 227.34,50.59 237.00,48.24
             239.74,47.57 243.19,46.94 246.00,47.11
             255.68,47.67 260.57,55.90 259.81,65.00
             259.02,74.56 252.99,83.60 246.00,89.82
             235.47,99.18 207.40,110.46 205.00,88.00
             194.73,92.27 196.56,94.95 189.91,101.98
             178.17,114.40 153.97,119.75 148.85,104.99
             147.95,102.39 148.02,99.70 148.00,97.00
             143.50,99.62 141.79,104.99 138.53,109.00
             131.60,117.53 120.23,125.14 109.00,125.91
             101.38,126.43 95.65,124.70 93.00,117.00
             93.00,117.00 80.70,131.26 80.70,131.26
             80.70,131.26 69.00,134.20 69.00,134.20
             69.00,134.20 41.00,139.00 41.00,139.00
             41.00,139.00 48.89,126.00 48.89,126.00
             48.89,126.00 56.00,98.00 56.00,98.00
             56.00,98.00 51.00,97.00 51.00,97.00
             51.32,95.03 51.31,93.93 52.60,92.21
             57.37,85.85 73.79,83.95 81.00,86.00
             81.00,86.00 74.13,96.04 74.13,96.04
             74.13,96.04 67.39,121.00 67.39,121.00
             67.39,121.00 68.00,126.00 68.00,126.00
             72.48,124.43 76.44,123.09 79.28,118.96
             79.28,118.96 83.00,111.39 83.00,111.39
             85.64,108.00 89.48,108.11 91.92,104.73
             91.92,104.73 96.88,94.00 96.88,94.00
             100.88,87.04 107.90,80.51 115.00,76.78
             123.31,72.43 137.73,68.34 144.00,78.04
             145.91,81.01 146.51,84.58 147.00,88.00
             152.37,84.78 154.68,78.66 159.09,74.01
             167.54,65.12 176.80,60.65 189.00,59.82
             192.25,59.83 198.23,57.74 200.44,59.82
             205.73,64.19 199.91,78.52 192.09,76.30
             188.87,75.39 187.06,71.12 183.00,70.64
             174.38,69.64 167.07,84.40 167.36,92.00
             167.65,99.89 176.69,105.11 180.00,94.00
             178.32,94.22 176.51,94.82 175.66,92.67 Z
           M 225.18,80.00
           C 225.64,83.59 227.30,88.74 232.01,87.34
             240.64,84.79 244.02,61.69 233.01,60.58
             225.28,63.30 224.28,72.82 225.18,80.00 Z
           M 112.18,105.00
           C 112.64,108.59 114.30,113.74 119.01,112.34
             127.64,109.79 131.02,86.69 120.01,85.58
             112.28,88.30 111.28,97.82 112.18,105.00 Z
           M 307.00,150.08
           C 314.14,150.11 316.21,153.84 320.00,153.02
             322.29,152.52 328.89,147.17 332.00,145.54
             336.71,143.08 341.00,143.25 346.00,142.11
             351.57,140.85 359.65,137.77 365.00,138.11
             375.13,138.74 375.25,146.75 371.10,153.96
             371.10,153.96 364.00,163.00 364.00,163.00
             371.70,165.40 369.84,170.61 368.95,177.00
             374.15,178.83 372.68,182.37 368.95,185.01
             365.74,187.21 357.89,189.51 354.11,188.43
             348.54,186.83 349.36,180.45 348.94,176.01
             348.80,174.48 348.40,171.16 346.08,171.62
             344.90,171.85 344.14,173.10 343.65,174.08
             339.92,181.44 346.51,185.75 341.57,190.01
             338.49,192.66 328.14,194.94 324.00,194.94
             321.86,194.95 318.64,194.73 318.63,191.85
             318.61,188.96 322.32,186.12 324.53,181.00
             324.53,181.00 331.00,158.00 331.00,158.00
             328.30,159.80 323.92,162.18 322.58,165.18
             321.58,167.43 321.76,173.60 317.65,181.00
             311.66,191.77 299.24,201.33 287.00,203.54
             280.97,204.62 273.67,204.13 269.65,198.89
             266.84,195.24 266.76,190.41 267.31,186.00
             267.21,184.51 268.07,180.98 267.31,179.81
             266.48,177.58 263.12,178.21 261.21,177.38
             258.75,176.31 258.06,174.24 257.00,172.00
             257.00,172.00 255.00,172.00 255.00,172.00
             252.09,179.34 250.75,185.42 248.87,193.00
             247.70,197.75 246.22,200.23 251.00,203.00
             250.17,213.20 239.45,214.24 231.00,215.56
             228.54,215.95 221.68,216.91 220.74,213.69
             219.66,209.95 225.15,207.94 227.47,203.90
             230.43,198.75 234.72,182.10 235.00,176.00
             232.73,178.38 228.33,183.72 225.96,185.26
             222.81,187.32 220.85,186.53 217.00,188.69
             214.35,190.18 211.47,193.11 208.13,192.58
             203.44,191.83 202.94,180.79 194.00,185.32
             184.13,190.32 181.34,207.47 192.00,209.65
             198.77,211.03 203.28,204.18 211.00,203.00
             210.89,207.18 210.79,209.40 208.20,212.96
             201.50,222.15 165.64,238.27 165.00,210.00
             159.85,212.72 157.67,218.74 153.83,223.00
             146.84,230.74 135.68,237.61 125.00,237.96
             118.21,238.18 111.88,236.10 109.65,229.00
             108.94,226.76 109.02,224.32 109.00,222.00
             109.00,222.00 105.00,222.00 105.00,222.00
             104.03,227.10 102.33,229.85 99.24,234.00
             89.55,247.01 78.62,248.53 64.00,251.26
             60.64,251.89 47.97,256.53 46.25,252.68
             44.81,249.45 49.74,246.58 51.92,242.96
             53.81,239.82 56.52,229.13 57.71,225.00
             58.33,222.84 60.11,217.01 60.02,215.04
             59.90,212.33 58.78,211.70 57.00,210.00
             60.05,201.27 68.16,201.98 76.00,200.12
             84.76,198.04 103.02,192.16 107.15,204.02
             108.13,206.82 107.99,210.06 108.00,213.00
             112.60,210.32 114.75,203.70 119.09,199.00
             121.73,196.14 124.75,193.26 128.00,191.10
             137.61,184.71 156.83,178.39 162.44,193.00
             163.43,195.60 163.77,198.26 164.00,201.00
             168.34,198.48 169.86,194.00 172.90,190.00
             176.41,185.39 180.19,182.09 185.00,178.89
             195.51,171.90 202.05,172.34 213.96,172.57
             217.94,172.65 218.69,174.87 220.92,174.40
             223.53,173.85 225.93,169.08 230.00,167.02
             232.04,165.99 236.48,165.67 239.00,165.20
             239.00,165.20 258.00,160.97 258.00,160.97
             260.93,160.11 264.86,158.36 267.78,160.04
             270.04,161.34 272.41,167.38 274.00,170.00
             279.17,159.06 294.87,150.02 307.00,150.08 Z
           M 346.00,162.00
           C 353.34,160.14 354.41,155.95 355.00,149.00
             347.45,149.63 347.49,155.42 346.00,162.00 Z
           M 287.18,183.00
           C 287.64,186.59 289.30,191.74 294.01,190.34
             302.64,187.79 306.02,164.69 295.01,163.58
             287.28,166.30 286.28,175.82 287.18,183.00 Z
           M 129.18,217.00
           C 129.64,220.59 131.30,225.74 136.01,224.34
             144.64,221.79 148.02,198.69 137.01,197.58
             129.28,200.30 128.28,209.82 129.18,217.00 Z
           M 88.20,220.00
           C 88.96,216.01 90.32,208.77 84.89,207.47
             78.12,205.85 77.32,213.44 76.12,218.00
             76.12,218.00 73.37,228.00 73.37,228.00
             71.91,233.80 71.13,235.89 71.00,242.00
             82.47,239.81 86.21,230.33 88.20,220.00 Z" />
</svg>
